<mxfile host="app.diagrams.net" modified="2023-10-20T19:16:00.145Z" agent="Mozilla/5.0 (Macintosh; Intel Mac OS X 10_15_7) AppleWebKit/537.36 (KHTML, like Gecko) Chrome/118.0.0.0 Safari/537.36" etag="cCMeDR_BpGzhdG727A9b" version="22.0.6" type="github">
  <diagram id="C5RBs43oDa-KdzZeNtuy" name="Page-1">
    <mxGraphModel dx="855" dy="373" grid="1" gridSize="10" guides="1" tooltips="1" connect="1" arrows="1" fold="1" page="1" pageScale="1" pageWidth="850" pageHeight="1100" math="0" shadow="0">
      <root>
        <mxCell id="WIyWlLk6GJQsqaUBKTNV-0" />
        <mxCell id="WIyWlLk6GJQsqaUBKTNV-1" parent="WIyWlLk6GJQsqaUBKTNV-0" />
        <mxCell id="9ANhp0rJH1cZioXLTVsO-12" style="edgeStyle=orthogonalEdgeStyle;rounded=0;orthogonalLoop=1;jettySize=auto;html=1;exitX=0.5;exitY=1;exitDx=0;exitDy=0;entryX=0.5;entryY=0;entryDx=0;entryDy=0;" edge="1" parent="WIyWlLk6GJQsqaUBKTNV-1" source="9ANhp0rJH1cZioXLTVsO-0" target="9ANhp0rJH1cZioXLTVsO-1">
          <mxGeometry relative="1" as="geometry" />
        </mxCell>
        <mxCell id="9ANhp0rJH1cZioXLTVsO-0" value="&lt;font style=&quot;font-size: 18px;&quot; face=&quot;Courier New&quot;&gt;start&lt;/font&gt;" style="ellipse;whiteSpace=wrap;html=1;" vertex="1" parent="WIyWlLk6GJQsqaUBKTNV-1">
          <mxGeometry x="120" y="40" width="80" height="40" as="geometry" />
        </mxCell>
        <mxCell id="9ANhp0rJH1cZioXLTVsO-13" style="edgeStyle=orthogonalEdgeStyle;rounded=0;orthogonalLoop=1;jettySize=auto;html=1;exitX=0.5;exitY=1;exitDx=0;exitDy=0;entryX=0.5;entryY=0;entryDx=0;entryDy=0;" edge="1" parent="WIyWlLk6GJQsqaUBKTNV-1" source="9ANhp0rJH1cZioXLTVsO-1" target="9ANhp0rJH1cZioXLTVsO-2">
          <mxGeometry relative="1" as="geometry" />
        </mxCell>
        <mxCell id="9ANhp0rJH1cZioXLTVsO-1" value="&lt;font face=&quot;Courier New&quot;&gt;Declarations&lt;br&gt;&amp;nbsp; &amp;nbsp;string userLetter&lt;/font&gt;" style="rounded=0;whiteSpace=wrap;html=1;align=left;" vertex="1" parent="WIyWlLk6GJQsqaUBKTNV-1">
          <mxGeometry x="80" y="100" width="160" height="40" as="geometry" />
        </mxCell>
        <mxCell id="9ANhp0rJH1cZioXLTVsO-14" style="edgeStyle=orthogonalEdgeStyle;rounded=0;orthogonalLoop=1;jettySize=auto;html=1;exitX=0.5;exitY=1;exitDx=0;exitDy=0;entryX=0.5;entryY=0;entryDx=0;entryDy=0;" edge="1" parent="WIyWlLk6GJQsqaUBKTNV-1" source="9ANhp0rJH1cZioXLTVsO-2" target="9ANhp0rJH1cZioXLTVsO-3">
          <mxGeometry relative="1" as="geometry" />
        </mxCell>
        <mxCell id="9ANhp0rJH1cZioXLTVsO-2" value="&lt;font face=&quot;Courier New&quot;&gt;&amp;nbsp; &amp;nbsp; output &quot;Please&amp;nbsp; &amp;nbsp; &amp;nbsp; &amp;nbsp;enter a letter&quot;&lt;/font&gt;" style="shape=parallelogram;perimeter=parallelogramPerimeter;whiteSpace=wrap;html=1;fixedSize=1;align=left;" vertex="1" parent="WIyWlLk6GJQsqaUBKTNV-1">
          <mxGeometry x="80" y="160" width="160" height="40" as="geometry" />
        </mxCell>
        <mxCell id="9ANhp0rJH1cZioXLTVsO-15" style="edgeStyle=orthogonalEdgeStyle;rounded=0;orthogonalLoop=1;jettySize=auto;html=1;exitX=0.5;exitY=1;exitDx=0;exitDy=0;entryX=0.5;entryY=0;entryDx=0;entryDy=0;" edge="1" parent="WIyWlLk6GJQsqaUBKTNV-1" source="9ANhp0rJH1cZioXLTVsO-3" target="9ANhp0rJH1cZioXLTVsO-4">
          <mxGeometry relative="1" as="geometry" />
        </mxCell>
        <mxCell id="9ANhp0rJH1cZioXLTVsO-3" value="&lt;font face=&quot;Courier New&quot;&gt;&amp;nbsp; &amp;nbsp;input userLetter&lt;/font&gt;" style="shape=parallelogram;perimeter=parallelogramPerimeter;whiteSpace=wrap;html=1;fixedSize=1;align=left;" vertex="1" parent="WIyWlLk6GJQsqaUBKTNV-1">
          <mxGeometry x="80" y="220" width="160" height="40" as="geometry" />
        </mxCell>
        <mxCell id="9ANhp0rJH1cZioXLTVsO-16" style="edgeStyle=orthogonalEdgeStyle;rounded=0;orthogonalLoop=1;jettySize=auto;html=1;exitX=0.5;exitY=1;exitDx=0;exitDy=0;entryX=0.5;entryY=0;entryDx=0;entryDy=0;" edge="1" parent="WIyWlLk6GJQsqaUBKTNV-1" source="9ANhp0rJH1cZioXLTVsO-4" target="9ANhp0rJH1cZioXLTVsO-6">
          <mxGeometry relative="1" as="geometry" />
        </mxCell>
        <mxCell id="9ANhp0rJH1cZioXLTVsO-4" value="&lt;font face=&quot;Courier New&quot;&gt;&amp;nbsp; &amp;nbsp; output &quot;You&amp;nbsp; &amp;nbsp; &amp;nbsp; &amp;nbsp; &amp;nbsp; entered: &quot; +&amp;nbsp; &amp;nbsp; &amp;nbsp; &amp;nbsp; &amp;nbsp; userLetter&lt;/font&gt;" style="shape=parallelogram;perimeter=parallelogramPerimeter;whiteSpace=wrap;html=1;fixedSize=1;align=left;" vertex="1" parent="WIyWlLk6GJQsqaUBKTNV-1">
          <mxGeometry x="80" y="280" width="160" height="60" as="geometry" />
        </mxCell>
        <mxCell id="9ANhp0rJH1cZioXLTVsO-17" style="edgeStyle=orthogonalEdgeStyle;rounded=0;orthogonalLoop=1;jettySize=auto;html=1;exitX=0.5;exitY=1;exitDx=0;exitDy=0;entryX=0.5;entryY=0;entryDx=0;entryDy=0;" edge="1" parent="WIyWlLk6GJQsqaUBKTNV-1" source="9ANhp0rJH1cZioXLTVsO-6" target="9ANhp0rJH1cZioXLTVsO-7">
          <mxGeometry relative="1" as="geometry" />
        </mxCell>
        <mxCell id="9ANhp0rJH1cZioXLTVsO-6" value="&lt;font face=&quot;Courier New&quot;&gt;evaluateUserLetter()&lt;/font&gt;" style="shape=process;whiteSpace=wrap;html=1;backgroundOutline=1;" vertex="1" parent="WIyWlLk6GJQsqaUBKTNV-1">
          <mxGeometry x="65" y="360" width="190" height="20" as="geometry" />
        </mxCell>
        <mxCell id="9ANhp0rJH1cZioXLTVsO-7" value="&lt;font style=&quot;font-size: 18px;&quot; face=&quot;Courier New&quot;&gt;stop&lt;/font&gt;" style="ellipse;whiteSpace=wrap;html=1;" vertex="1" parent="WIyWlLk6GJQsqaUBKTNV-1">
          <mxGeometry x="120" y="400" width="80" height="40" as="geometry" />
        </mxCell>
        <mxCell id="9ANhp0rJH1cZioXLTVsO-20" style="edgeStyle=orthogonalEdgeStyle;rounded=0;orthogonalLoop=1;jettySize=auto;html=1;exitX=0.5;exitY=1;exitDx=0;exitDy=0;entryX=0.5;entryY=0;entryDx=0;entryDy=0;" edge="1" parent="WIyWlLk6GJQsqaUBKTNV-1" source="9ANhp0rJH1cZioXLTVsO-18" target="9ANhp0rJH1cZioXLTVsO-19">
          <mxGeometry relative="1" as="geometry" />
        </mxCell>
        <mxCell id="9ANhp0rJH1cZioXLTVsO-18" value="&lt;font face=&quot;Courier New&quot;&gt;evaluateUserLetter()&lt;/font&gt;" style="rounded=1;whiteSpace=wrap;html=1;" vertex="1" parent="WIyWlLk6GJQsqaUBKTNV-1">
          <mxGeometry x="425" y="80" width="335" height="40" as="geometry" />
        </mxCell>
        <mxCell id="9ANhp0rJH1cZioXLTVsO-19" value="&lt;div style=&quot;&quot;&gt;&lt;span style=&quot;font-size: 11px; font-family: &amp;quot;Courier New&amp;quot;; background-color: initial;&quot;&gt;&amp;nbsp; &amp;nbsp; &amp;nbsp; Declarations&lt;/span&gt;&lt;/div&gt;&lt;font face=&quot;Courier New&quot; style=&quot;font-size: 11px;&quot;&gt;&lt;div style=&quot;&quot;&gt;&lt;font style=&quot;background-color: initial;&quot;&gt;&amp;nbsp; &amp;nbsp; &amp;nbsp; &amp;nbsp;&amp;nbsp;&lt;/font&gt;&lt;span style=&quot;background-color: initial;&quot;&gt;array alphaBeginning = [“A”, …, “E”]&lt;/span&gt;&lt;/div&gt;&lt;/font&gt;&lt;p style=&quot;margin: 0in; line-height: normal; font-size: 11px;&quot; class=&quot;MsoNormal&quot;&gt;&lt;font face=&quot;Courier New&quot; style=&quot;font-size: 11px;&quot;&gt;&amp;nbsp; &amp;nbsp; &amp;nbsp; &amp;nbsp; array alphaMiddle = [“J”, …, “P”]&lt;/font&gt;&lt;/p&gt;&lt;p style=&quot;margin: 0in; line-height: normal; font-size: 11px;&quot; class=&quot;MsoNormal&quot;&gt;&lt;font face=&quot;Courier New&quot; style=&quot;font-size: 11px;&quot;&gt;&amp;nbsp; &amp;nbsp; &amp;nbsp; &amp;nbsp; array alphaEnd = [“Q”, …, “X”]&lt;/font&gt;&lt;span style=&quot;font-family: &amp;quot;Andale Mono&amp;quot;; font-size: 11pt;&quot;&gt;&lt;/span&gt;&lt;/p&gt;" style="rounded=0;whiteSpace=wrap;html=1;align=left;" vertex="1" parent="WIyWlLk6GJQsqaUBKTNV-1">
          <mxGeometry x="440" y="140" width="310" height="70" as="geometry" />
        </mxCell>
        <mxCell id="9ANhp0rJH1cZioXLTVsO-21" value="&lt;font face=&quot;Courier New&quot;&gt;switch&lt;br&gt;(userLetter)&lt;br&gt;&lt;/font&gt;" style="rounded=0;whiteSpace=wrap;html=1;" vertex="1" parent="WIyWlLk6GJQsqaUBKTNV-1">
          <mxGeometry x="440" y="230" width="120" height="40" as="geometry" />
        </mxCell>
        <mxCell id="9ANhp0rJH1cZioXLTVsO-22" value="&lt;font size=&quot;1&quot; face=&quot;Courier New&quot;&gt;case&lt;br&gt;alphaBeginning&lt;br&gt;&lt;/font&gt;" style="rhombus;whiteSpace=wrap;html=1;rounded=0;perimeterSpacing=0;verticalAlign=middle;spacingBottom=20;" vertex="1" parent="WIyWlLk6GJQsqaUBKTNV-1">
          <mxGeometry x="440" y="290" width="120" height="60" as="geometry" />
        </mxCell>
        <mxCell id="9ANhp0rJH1cZioXLTVsO-23" value="&lt;font size=&quot;1&quot; face=&quot;Courier New&quot;&gt;case&lt;br&gt;alphaMiddle&lt;br&gt;&lt;/font&gt;" style="rhombus;whiteSpace=wrap;html=1;rounded=0;perimeterSpacing=0;verticalAlign=middle;spacingBottom=20;" vertex="1" parent="WIyWlLk6GJQsqaUBKTNV-1">
          <mxGeometry x="440" y="370" width="120" height="60" as="geometry" />
        </mxCell>
        <mxCell id="9ANhp0rJH1cZioXLTVsO-24" value="&lt;font size=&quot;1&quot; face=&quot;Courier New&quot;&gt;case&lt;br&gt;alphaEnd&lt;br&gt;&lt;/font&gt;" style="rhombus;whiteSpace=wrap;html=1;rounded=0;perimeterSpacing=0;verticalAlign=middle;spacingBottom=20;" vertex="1" parent="WIyWlLk6GJQsqaUBKTNV-1">
          <mxGeometry x="440" y="450" width="120" height="60" as="geometry" />
        </mxCell>
        <mxCell id="9ANhp0rJH1cZioXLTVsO-25" value="&lt;font size=&quot;1&quot; face=&quot;Courier New&quot;&gt;default&lt;br&gt;&lt;/font&gt;" style="rhombus;whiteSpace=wrap;html=1;rounded=0;perimeterSpacing=0;verticalAlign=middle;spacingBottom=0;" vertex="1" parent="WIyWlLk6GJQsqaUBKTNV-1">
          <mxGeometry x="440" y="530" width="120" height="60" as="geometry" />
        </mxCell>
      </root>
    </mxGraphModel>
  </diagram>
</mxfile>
